<mxfile host="app.diagrams.net" modified="2022-02-17T16:39:22.139Z" agent="5.0 (Windows NT 10.0; Win64; x64) AppleWebKit/537.36 (KHTML, like Gecko) Chrome/98.0.4758.82 Safari/537.36" etag="l1VD8YnyVmZ3trX-nwVg" version="16.5.6" type="github">
  <diagram id="QtkiRmB8YHKk6vRYNaoq" name="Page-1">
    <mxGraphModel dx="1783" dy="967" grid="1" gridSize="10" guides="1" tooltips="1" connect="1" arrows="1" fold="1" page="1" pageScale="1" pageWidth="827" pageHeight="1169" math="0" shadow="0">
      <root>
        <mxCell id="0" />
        <mxCell id="1" parent="0" />
        <mxCell id="9ae1ANTuW6Jruh4qEqP1-11" value="" style="edgeStyle=orthogonalEdgeStyle;rounded=0;orthogonalLoop=1;jettySize=auto;html=1;" edge="1" parent="1" source="9ae1ANTuW6Jruh4qEqP1-1" target="9ae1ANTuW6Jruh4qEqP1-7">
          <mxGeometry relative="1" as="geometry">
            <Array as="points">
              <mxPoint x="190" y="500" />
              <mxPoint x="190" y="500" />
            </Array>
          </mxGeometry>
        </mxCell>
        <mxCell id="9ae1ANTuW6Jruh4qEqP1-13" value="" style="edgeStyle=orthogonalEdgeStyle;rounded=0;orthogonalLoop=1;jettySize=auto;html=1;entryX=0;entryY=0.5;entryDx=0;entryDy=0;" edge="1" parent="1" source="9ae1ANTuW6Jruh4qEqP1-1" target="9ae1ANTuW6Jruh4qEqP1-6">
          <mxGeometry relative="1" as="geometry">
            <Array as="points">
              <mxPoint x="140" y="500" />
              <mxPoint x="140" y="310" />
            </Array>
          </mxGeometry>
        </mxCell>
        <mxCell id="9ae1ANTuW6Jruh4qEqP1-15" value="" style="edgeStyle=orthogonalEdgeStyle;rounded=0;orthogonalLoop=1;jettySize=auto;html=1;entryX=0;entryY=0.5;entryDx=0;entryDy=0;" edge="1" parent="1" source="9ae1ANTuW6Jruh4qEqP1-1" target="9ae1ANTuW6Jruh4qEqP1-8">
          <mxGeometry relative="1" as="geometry">
            <mxPoint x="60" y="640" as="targetPoint" />
            <Array as="points">
              <mxPoint x="140" y="500" />
              <mxPoint x="140" y="680" />
            </Array>
          </mxGeometry>
        </mxCell>
        <mxCell id="9ae1ANTuW6Jruh4qEqP1-1" value="&lt;b&gt;회원가입 진입&lt;/b&gt;" style="strokeWidth=2;html=1;shape=mxgraph.flowchart.start_1;whiteSpace=wrap;" vertex="1" parent="1">
          <mxGeometry x="10" y="470" width="100" height="60" as="geometry" />
        </mxCell>
        <mxCell id="9ae1ANTuW6Jruh4qEqP1-2" value="&lt;b&gt;회원가입 성공&lt;/b&gt;" style="strokeWidth=2;html=1;shape=mxgraph.flowchart.start_1;whiteSpace=wrap;" vertex="1" parent="1">
          <mxGeometry x="890" y="470" width="100" height="60" as="geometry" />
        </mxCell>
        <mxCell id="9ae1ANTuW6Jruh4qEqP1-24" value="" style="edgeStyle=orthogonalEdgeStyle;rounded=0;orthogonalLoop=1;jettySize=auto;html=1;entryX=0;entryY=0.5;entryDx=0;entryDy=0;entryPerimeter=0;" edge="1" parent="1" source="9ae1ANTuW6Jruh4qEqP1-6" target="9ae1ANTuW6Jruh4qEqP1-16">
          <mxGeometry relative="1" as="geometry">
            <mxPoint x="445" y="370" as="targetPoint" />
          </mxGeometry>
        </mxCell>
        <mxCell id="9ae1ANTuW6Jruh4qEqP1-32" value="" style="edgeStyle=orthogonalEdgeStyle;rounded=0;orthogonalLoop=1;jettySize=auto;html=1;entryX=0;entryY=0.5;entryDx=0;entryDy=0;entryPerimeter=0;" edge="1" parent="1" source="9ae1ANTuW6Jruh4qEqP1-6" target="9ae1ANTuW6Jruh4qEqP1-30">
          <mxGeometry relative="1" as="geometry">
            <mxPoint x="380" y="370" as="targetPoint" />
          </mxGeometry>
        </mxCell>
        <mxCell id="9ae1ANTuW6Jruh4qEqP1-6" value="&lt;b&gt;이메일 입력&lt;/b&gt;" style="rounded=1;whiteSpace=wrap;html=1;absoluteArcSize=1;arcSize=14;strokeWidth=2;" vertex="1" parent="1">
          <mxGeometry x="210" y="280" width="110" height="60" as="geometry" />
        </mxCell>
        <mxCell id="9ae1ANTuW6Jruh4qEqP1-20" value="" style="edgeStyle=orthogonalEdgeStyle;rounded=0;orthogonalLoop=1;jettySize=auto;html=1;entryX=0;entryY=0.5;entryDx=0;entryDy=0;entryPerimeter=0;" edge="1" parent="1" source="9ae1ANTuW6Jruh4qEqP1-7" target="9ae1ANTuW6Jruh4qEqP1-17">
          <mxGeometry relative="1" as="geometry">
            <mxPoint x="470" y="500" as="targetPoint" />
          </mxGeometry>
        </mxCell>
        <mxCell id="9ae1ANTuW6Jruh4qEqP1-7" value="&lt;b&gt;비밀번호 입력&lt;/b&gt;" style="rounded=1;whiteSpace=wrap;html=1;absoluteArcSize=1;arcSize=14;strokeWidth=2;" vertex="1" parent="1">
          <mxGeometry x="220" y="470" width="110" height="60" as="geometry" />
        </mxCell>
        <mxCell id="9ae1ANTuW6Jruh4qEqP1-22" value="" style="edgeStyle=orthogonalEdgeStyle;rounded=0;orthogonalLoop=1;jettySize=auto;html=1;entryX=0;entryY=0.5;entryDx=0;entryDy=0;entryPerimeter=0;" edge="1" parent="1" source="9ae1ANTuW6Jruh4qEqP1-8" target="9ae1ANTuW6Jruh4qEqP1-18">
          <mxGeometry relative="1" as="geometry">
            <mxPoint x="445" y="630" as="targetPoint" />
          </mxGeometry>
        </mxCell>
        <mxCell id="9ae1ANTuW6Jruh4qEqP1-8" value="&lt;b&gt;비밀번호 확인 입력&lt;/b&gt;" style="rounded=1;whiteSpace=wrap;html=1;absoluteArcSize=1;arcSize=14;strokeWidth=2;" vertex="1" parent="1">
          <mxGeometry x="220" y="650" width="110" height="60" as="geometry" />
        </mxCell>
        <mxCell id="9ae1ANTuW6Jruh4qEqP1-27" value="" style="edgeStyle=orthogonalEdgeStyle;rounded=0;orthogonalLoop=1;jettySize=auto;html=1;" edge="1" parent="1" source="9ae1ANTuW6Jruh4qEqP1-16" target="9ae1ANTuW6Jruh4qEqP1-26">
          <mxGeometry relative="1" as="geometry" />
        </mxCell>
        <mxCell id="9ae1ANTuW6Jruh4qEqP1-16" value="이메일 형식 체크" style="strokeWidth=2;html=1;shape=mxgraph.flowchart.decision;whiteSpace=wrap;" vertex="1" parent="1">
          <mxGeometry x="435" y="200" width="130" height="100" as="geometry" />
        </mxCell>
        <mxCell id="9ae1ANTuW6Jruh4qEqP1-17" value="비밀번호 &lt;br&gt;형식 체크" style="strokeWidth=2;html=1;shape=mxgraph.flowchart.decision;whiteSpace=wrap;" vertex="1" parent="1">
          <mxGeometry x="435" y="452.5" width="130" height="95" as="geometry" />
        </mxCell>
        <mxCell id="9ae1ANTuW6Jruh4qEqP1-18" value="비밀번호와&lt;br&gt;비밀번호 확인 &lt;br&gt;일치 여부 체크" style="strokeWidth=2;html=1;shape=mxgraph.flowchart.decision;whiteSpace=wrap;" vertex="1" parent="1">
          <mxGeometry x="435" y="632.5" width="130" height="95" as="geometry" />
        </mxCell>
        <mxCell id="9ae1ANTuW6Jruh4qEqP1-29" value="" style="edgeStyle=orthogonalEdgeStyle;rounded=0;orthogonalLoop=1;jettySize=auto;html=1;entryX=0.5;entryY=0;entryDx=0;entryDy=0;entryPerimeter=0;" edge="1" parent="1" source="9ae1ANTuW6Jruh4qEqP1-26" target="9ae1ANTuW6Jruh4qEqP1-1">
          <mxGeometry relative="1" as="geometry">
            <mxPoint x="70" y="370" as="targetPoint" />
          </mxGeometry>
        </mxCell>
        <mxCell id="9ae1ANTuW6Jruh4qEqP1-26" value="이메일 형식 &lt;br&gt;에러 출력" style="strokeWidth=2;html=1;shape=mxgraph.flowchart.display;whiteSpace=wrap;" vertex="1" parent="1">
          <mxGeometry x="450" y="110" width="100" height="60" as="geometry" />
        </mxCell>
        <mxCell id="9ae1ANTuW6Jruh4qEqP1-30" value="이메일 인증&lt;br&gt;0-1로 이동" style="strokeWidth=2;html=1;shape=mxgraph.flowchart.decision;whiteSpace=wrap;" vertex="1" parent="1">
          <mxGeometry x="435" y="320" width="130" height="100" as="geometry" />
        </mxCell>
        <mxCell id="9ae1ANTuW6Jruh4qEqP1-34" value="&lt;b&gt;&lt;font style=&quot;font-size: 19px&quot;&gt;0 - 1&lt;/font&gt;&lt;br&gt;이메일 인증&lt;br&gt;&lt;/b&gt;" style="strokeWidth=2;html=1;shape=mxgraph.flowchart.start_1;whiteSpace=wrap;" vertex="1" parent="1">
          <mxGeometry x="40" y="1090" width="100" height="60" as="geometry" />
        </mxCell>
        <mxCell id="9ae1ANTuW6Jruh4qEqP1-35" value="&lt;b&gt;0 - 1&lt;br&gt;이메일 인증&amp;nbsp;&lt;/b&gt;" style="text;html=1;strokeColor=none;fillColor=none;align=center;verticalAlign=middle;whiteSpace=wrap;rounded=0;fontSize=19;" vertex="1" parent="1">
          <mxGeometry x="20" y="910" width="150" height="80" as="geometry" />
        </mxCell>
      </root>
    </mxGraphModel>
  </diagram>
</mxfile>
